<?xml version="1.0" encoding="UTF-8"?>
<svg xmlns="http://www.w3.org/2000/svg" viewBox="0 0 200 200">
  <defs>
    <linearGradient id="medibooGradient" x1="0%" y1="0%" x2="100%" y2="100%">
      <stop offset="0%" style="stop-color:#4A90E2;stop-opacity:1" />
      <stop offset="50%" style="stop-color:#5CB3CC;stop-opacity:1" />
      <stop offset="100%" style="stop-color:#7ED321;stop-opacity:1" />
    </linearGradient>
  </defs>
  
  <!-- Background Circle -->
  <circle cx="100" cy="100" r="90" fill="url(#medibooGradient)" opacity="0.1"/>
  
  <!-- Medical Cross -->
  <g transform="translate(100,100)">
    <!-- Vertical bar -->
    <rect x="-8" y="-35" width="16" height="70" fill="url(#medibooGradient)" rx="8"/>
    <!-- Horizontal bar -->
    <rect x="-35" y="-8" width="70" height="16" fill="url(#medibooGradient)" rx="8"/>
  </g>
  
  <!-- Heart symbol -->
  <g transform="translate(100,60)">
    <path d="M0,10 C-10,0 -20,0 -20,10 C-20,20 0,35 0,35 C0,35 20,20 20,10 C20,0 10,0 0,10 Z" 
          fill="#E74C3C" opacity="0.8"/>
  </g>
  
  <!-- Stethoscope curve -->
  <g transform="translate(100,140)">
    <circle cx="0" cy="0" r="15" fill="none" stroke="#4A90E2" stroke-width="3"/>
    <path d="M-12,-8 Q-25,-15 -35,-25" fill="none" stroke="#4A90E2" stroke-width="3" stroke-linecap="round"/>
    <path d="M12,-8 Q25,-15 35,-25" fill="none" stroke="#4A90E2" stroke-width="3" stroke-linecap="round"/>
  </g>
</svg>
